<svg xmlns="http://www.w3.org/2000/svg" viewBox="0 0 755.69 164.29"><path d="M893,469.93c-1.37,3.61-2.76,7.21-4.11,10.83q-16.29,43.82-32.58,87.65a79.67,79.67,0,0,1-7.67,15.65c-4.25,6.52-10.48,10-17.84,11.73s-14.66,1.72-22,1.06c-4.77-.42-9.53-1-14.28-1.58a1.28,1.28,0,0,1-.93-.76q-1.37-11.76-2.65-23.51c2.79.56,5.49,1.24,8.23,1.62a39.58,39.58,0,0,0,12.76.18,12.94,12.94,0,0,0,9.08-6.25,44,44,0,0,0,2.6-5.24,2.9,2.9,0,0,0,0-2q-16.6-39.64-33.29-79.28l-4.32-10.24h36.75c6.17,19.85,12.36,39.78,18.64,60,.17-.48.29-.75.37-1q8.34-29,16.64-57.92c.27-1,.68-1.12,1.56-1.12q16.56,0,33.11,0Z" transform="translate(-137.31 -432.97)" fill="#2266fe"/><path d="M173.78,516.67a89.57,89.57,0,0,0,3,9.62c3,6.79,8.48,10.27,15.68,11.22a25.3,25.3,0,0,0,11.49-.94,13.75,13.75,0,0,0,8.16-6.8c2.71-5.19.67-11.5-4.75-14.78-3.73-2.25-7.89-3.44-12.05-4.56-7.17-1.92-14.39-3.64-21.49-5.78a62.57,62.57,0,0,1-18.56-9c-15.33-11-16.51-30.43-8.14-43.6,4.78-7.52,11.72-12.17,19.9-15.2a64,64,0,0,1,16.26-3.35,123.54,123.54,0,0,1,20-.25,68.13,68.13,0,0,1,20.1,4.11c11.85,4.55,19,13.21,22.08,25.37.35,1.39.65,2.8.92,4.21.2,1,.31,2,.49,3.28l-36.42,2.13c-.49-1.72-.88-3.34-1.41-4.92-2.22-6.62-7-10.05-13.8-10.9a22.17,22.17,0,0,0-11.1.95,9.39,9.39,0,0,0-6,6.39,6.9,6.9,0,0,0,3.85,8.4,39.88,39.88,0,0,0,8,2.87c7.52,2,15.14,3.58,22.65,5.59,7.29,2,14.42,4.4,21,8.33,9.2,5.54,15.17,13.39,16.87,24.09A39.3,39.3,0,0,1,242,544.93c-6.59,8.28-15.45,12.92-25.58,15.37-8.34,2-16.83,2.36-25.36,2.13a101,101,0,0,1-22.74-3c-13.49-3.5-22.2-12.2-27.41-24.77a53.36,53.36,0,0,1-3.56-14.84c-.07-.69.11-.91.81-.95,6.73-.38,13.47-.8,20.2-1.22l13.4-.85Z" transform="translate(-137.31 -432.97)" fill="#2266fe"/><path d="M317,562.48c-10.05,0-18.78-1.15-26.87-5.09-14.6-7.1-23.47-18.61-25.73-34.82-1.36-9.67-.44-19.15,3.78-28.06,5.68-12,15-20,27.59-24.11,8.4-2.76,17.05-3.25,25.81-2.69a56.52,56.52,0,0,1,21.28,5.12c13.1,6.31,21.2,16.7,24.14,30.87,2.26,10.87,1.61,21.66-3.12,31.86-5.85,12.61-15.75,20.65-29.07,24.5A64.14,64.14,0,0,1,317,562.48Zm16.2-49c-.18-1.52-.37-4.51-.94-7.44-1.08-5.58-3.85-10.14-9-12.86-8.15-4.28-18.35-.36-22.1,8.47-2.2,5.19-2.54,10.66-2.27,16.2.21,4.34.83,8.61,3,12.45,3.27,5.84,8.27,8.9,15,8.58,6.46-.31,11-3.65,13.74-9.43C332.77,524.89,333.06,519.94,333.2,513.5Z" transform="translate(-137.31 -432.97)" fill="#2266fe"/><path d="M608.66,562.48c-10.17,0-18.82-1.14-26.85-5-14.71-7.09-23.63-18.64-25.91-34.94-1.35-9.63-.43-19.08,3.76-28,5.65-12,15-20,27.55-24.15,8.43-2.78,17.12-3.28,25.92-2.71a57,57,0,0,1,20.62,4.84c13.94,6.5,22.28,17.46,25,32.49,1.9,10.45,1.16,20.81-3.4,30.57-5.86,12.55-15.71,20.57-29,24.43A63.15,63.15,0,0,1,608.66,562.48Zm-18.45-45.67c.26,1.8.52,5.24,1.27,8.56,1.23,5.44,4.19,9.78,9.4,12.14a15.83,15.83,0,0,0,21.92-9.77,41.36,41.36,0,0,0,.55-23.36,17,17,0,0,0-6.73-10c-8.19-5.88-19.82-2.34-24,7.26C590.77,506,590.38,510.54,590.21,516.81Z" transform="translate(-137.31 -432.97)" fill="#2266fe"/><path d="M483.77,498.72,451,503c-.24-.71-.45-1.39-.7-2.05a13.93,13.93,0,0,0-11.24-9.29,21.06,21.06,0,0,0-11.56.83,17,17,0,0,0-10.26,10.73,36.65,36.65,0,0,0-.44,23.41c2.65,8.32,10.54,13.08,19.21,12.2,8.2-.83,13.24-5.37,15.93-12.86.38-1.06.84-1.21,1.89-1.08,7.25.89,14.51,1.7,21.77,2.54l9.93,1.17c-.42,1.38-.76,2.64-1.2,3.86-5.77,16-17.08,25.51-33.71,28.74-8.46,1.64-17,1.48-25.56.8-5.79-.47-11.54-1.29-16.94-3.48-15.13-6.14-24.52-17-26.9-33.41-1.29-8.89-1.22-17.83,1.54-26.44,4.88-15.21,15.46-24.73,30.74-29,8.66-2.41,17.59-2.48,26.53-2a65.9,65.9,0,0,1,18.2,3.26c12,4.14,19.74,12.56,24.26,24.19C482.93,496.27,483.3,497.41,483.77,498.72Z" transform="translate(-137.31 -432.97)" fill="#2266fe"/><path d="M677.83,435.21H712.5v125H677.83Z" transform="translate(-137.31 -432.97)" fill="#2266fe"/><path d="M770.56,560.26H735.89v-125h34.67Z" transform="translate(-137.31 -432.97)" fill="#2266fe"/><path d="M502.72,469.74h34.65v90.47H502.72Z" transform="translate(-137.31 -432.97)" fill="#2266fe"/><path d="M537.35,458.85H502.7V435.26h34.65Z" transform="translate(-137.31 -432.97)" fill="#2266fe"/></svg>